<svg width="72" height="72" viewBox="0 0 72 72" fill="none" xmlns="http://www.w3.org/2000/svg">
<circle cx="36" cy="36" r="36" fill="#18A000"/>
<path d="M26.0007 51.0019C25.5284 51.0019 25.1329 50.8419 24.814 50.5219C24.4951 50.2019 24.3351 49.8063 24.334 49.3352C24.334 48.863 24.494 48.4674 24.814 48.1485C25.134 47.8297 25.5295 47.6697 26.0007 47.6685H32.6673V44.3352C30.3618 44.3352 28.3968 43.5224 26.7723 41.8969C25.1479 40.2713 24.3351 38.3063 24.334 36.0019C24.334 34.4185 24.7368 32.9602 25.5423 31.6269C26.3479 30.2935 27.459 29.2797 28.8757 28.5852C28.7645 29.1963 28.7857 29.7935 28.939 30.3769C29.0923 30.9602 29.3351 31.5158 29.6673 32.0435C29.0284 32.488 28.5351 33.0574 28.1873 33.7519C27.8395 34.4463 27.6662 35.1963 27.6673 36.0019C27.6673 37.3908 28.1534 38.5713 29.1257 39.5435C30.0979 40.5158 31.2784 41.0019 32.6673 41.0019H44.334C44.8062 41.0019 45.2023 41.1619 45.5223 41.4819C45.8423 41.8019 46.0018 42.1974 46.0007 42.6685C46.0007 43.1408 45.8407 43.5369 45.5207 43.8569C45.2007 44.1769 44.8051 44.3363 44.334 44.3352H37.6673V47.6685H46.0007C46.4729 47.6685 46.869 47.8285 47.189 48.1485C47.509 48.4685 47.6684 48.8641 47.6673 49.3352C47.6673 49.8074 47.5073 50.2035 47.1873 50.5235C46.8673 50.8435 46.4718 51.003 46.0007 51.0019H26.0007ZM38.834 34.5852H38.7923C38.3479 34.7519 37.924 34.7447 37.5206 34.5635C37.1173 34.3824 36.8329 34.0702 36.6673 33.6269L36.4173 32.9602C36.9729 32.5158 37.4034 31.9813 37.709 31.3569C38.0145 30.7324 38.1673 30.0585 38.1673 29.3352C38.1673 28.0297 37.709 26.9258 36.7923 26.0235C35.8757 25.1213 34.7507 24.6697 33.4173 24.6685L33.209 24.1269C33.0701 23.6824 33.0912 23.2585 33.2723 22.8552C33.4534 22.4519 33.7657 22.1674 34.209 22.0019H34.2507C34.084 21.5852 34.0979 21.1758 34.2923 20.7735C34.4868 20.3713 34.8201 20.0863 35.2923 19.9185C35.709 19.7797 36.119 19.8008 36.5223 19.9819C36.9257 20.163 37.1962 20.4752 37.334 20.9185C37.7784 20.7519 38.209 20.7658 38.6257 20.9602C39.0423 21.1547 39.334 21.4741 39.5007 21.9185L42.9173 31.2935C43.084 31.738 43.0773 32.1619 42.8973 32.5652C42.7173 32.9685 42.4045 33.253 41.959 33.4185H41.9173C42.084 33.863 42.0701 34.2935 41.8757 34.7102C41.6812 35.1269 41.3479 35.4185 40.8757 35.5852C40.459 35.7241 40.0495 35.7035 39.6473 35.5235C39.2451 35.3435 38.974 35.0308 38.834 34.5852ZM33.5007 32.3352C32.6673 32.3352 31.959 32.0435 31.3757 31.4602C30.7923 30.8769 30.5007 30.1685 30.5007 29.3352C30.5007 28.5019 30.7923 27.7935 31.3757 27.2102C31.959 26.6269 32.6673 26.3352 33.5007 26.3352C34.334 26.3352 35.0423 26.6269 35.6257 27.2102C36.209 27.7935 36.5007 28.5019 36.5007 29.3352C36.5007 30.1685 36.209 30.8769 35.6257 31.4602C35.0423 32.0435 34.334 32.3352 33.5007 32.3352Z" fill="white"/>
</svg>
