<svg width="73" height="72" viewBox="0 0 73 72" fill="none" xmlns="http://www.w3.org/2000/svg">
<circle cx="36.5" cy="36" r="36" fill="#18A000"/>
<g clip-path="url(#clip0_1084_896)">
<path d="M50.406 56.6052L42.7513 47.5461V31.666H43.7087C44.5029 31.666 45.1462 31.0228 45.1462 30.2285C45.1462 29.4343 44.5029 28.791 43.7087 28.791H41.3138C40.5196 28.791 39.8763 29.4343 39.8763 30.2285V48.0995C39.8762 48.4555 40.0084 48.7987 40.2472 49.0627L46.1035 56.1308H27.8976L33.754 49.0626C33.9928 48.7987 34.1249 48.4554 34.1248 48.0995V30.2286C34.1248 29.4344 33.4816 28.7911 32.6873 28.7911H30.2924C29.4982 28.7911 28.8549 29.4344 28.8549 30.2286C28.8549 31.0228 29.4982 31.6661 30.2924 31.6661H31.2498V47.5461L23.5951 56.6053C23.4089 56.8117 23.2865 57.0676 23.2427 57.342C23.1988 57.6165 23.2353 57.8978 23.3479 58.152C23.4608 58.4062 23.645 58.6221 23.8782 58.7737C24.1115 58.9253 24.3836 59.006 24.6618 59.0059H49.3393C49.6175 59.006 49.8897 58.9253 50.1229 58.7737C50.3561 58.6221 50.5403 58.4062 50.6533 58.152C50.8833 57.6331 50.787 57.0265 50.406 56.6053V56.6052ZM35.5631 27.3593C37.1472 27.3593 38.4309 26.0749 38.4309 24.4915C38.4309 22.9095 37.1472 21.6251 35.5631 21.6251C33.9782 21.6251 32.6953 22.9095 32.6953 24.4915C32.6953 26.0749 33.9782 27.3593 35.5631 27.3593ZM44.9284 23.0921C47.7301 23.0921 50.0013 20.8309 50.0013 18.0421C50.0013 15.2534 47.7308 12.9922 44.9284 12.9922C42.1274 12.9922 39.8554 15.2534 39.8554 18.0421C39.8554 20.8309 42.1274 23.0921 44.9284 23.0921ZM44.9061 15.8585C46.1035 15.8585 47.0774 16.8281 47.0774 18.0205C47.0774 19.2122 46.1035 20.1825 44.9061 20.1825C43.7087 20.1825 42.7347 19.2122 42.7347 18.0205C42.7355 16.8281 43.7087 15.8585 44.9061 15.8585Z" fill="white"/>
</g>
<defs>
<clipPath id="clip0_1084_896">
<rect width="46" height="46" fill="white" transform="translate(14 13)"/>
</clipPath>
</defs>
</svg>
