<svg width="73" height="72" viewBox="0 0 73 72" fill="none" xmlns="http://www.w3.org/2000/svg">
<circle cx="36.5" cy="36" r="36" fill="#18A000"/>
<path d="M33.75 22.5H24.75C24.1533 22.5 23.581 22.7371 23.159 23.159C22.7371 23.581 22.5 24.1533 22.5 24.75V41.25C22.5 41.8467 22.7371 42.419 23.159 42.841C23.581 43.2629 24.1533 43.5 24.75 43.5H47.25C47.8467 43.5 48.419 43.2629 48.841 42.841C49.2629 42.419 49.5 41.8467 49.5 41.25V33.75M36 43.5V49.5" stroke="white" stroke-width="4" stroke-linecap="round" stroke-linejoin="round"/>
<path d="M42 22.5L39 25.5L42 28.5M46.5 22.5L49.5 25.5L46.5 28.5M28.5 49.5H43.5" stroke="white" stroke-width="4" stroke-linecap="round" stroke-linejoin="round"/>
</svg>
