<svg width="73" height="72" viewBox="0 0 73 72" fill="none" xmlns="http://www.w3.org/2000/svg">
<circle cx="36.5" cy="36" r="36" fill="#18A000"/>
<path d="M35.9998 51.1723C35.8598 51.9233 34.4608 55.4443 31.5758 55.4973C26.8768 55.5843 27.9468 52.3563 24.0738 49.5503C20.2008 46.7443 20.4768 44.7033 20.1348 42.4023" stroke="white" stroke-linecap="round" stroke-linejoin="round"/>
<path d="M21.6029 43.8906C18.7869 42.4916 18.2699 35.5586 20.4439 36.6706C20.4439 36.6706 18.4849 29.8906 22.0379 28.1406" stroke="white" stroke-linecap="round" stroke-linejoin="round"/>
<path d="M23.3329 31.1771C23.3329 31.1771 20.0509 25.3751 24.7529 22.4531" stroke="white" stroke-linecap="round" stroke-linejoin="round"/>
<path d="M24.9326 24.3842C24.8986 24.1402 23.5006 19.0932 28.8696 18.2772M28.5576 19.3462C28.5576 19.3462 30.8576 13.3462 36.0006 18.7692M31.5796 52.7432C30.6326 52.7912 28.7576 53.1252 26.3526 48.6312M30.7646 47.5012C31.4769 47.6446 32.133 47.9896 32.6547 48.4953C33.1765 49.0009 33.542 49.6458 33.7076 50.3532M25.4106 44.1212C24.6442 43.6342 24.018 42.9559 23.5936 42.1531C23.1692 41.3503 22.9614 40.4508 22.9906 39.5432C23.2206 36.5582 22.1406 35.3432 22.1406 35.3432M25.6476 34.3762C25.6476 34.3762 27.3106 34.1702 28.0046 36.8112C28.0613 37.0726 28.1861 37.3144 28.3664 37.5119C28.5467 37.7094 28.7761 37.8557 29.0313 37.9358C29.2865 38.016 29.5583 38.0272 29.8192 37.9682C30.0801 37.9093 30.3207 37.7823 30.5166 37.6002M31.2446 35.1922C31.2446 35.1922 33.1326 35.4922 33.6116 34.1422M28.5756 33.6202C28.7916 32.3007 28.5983 30.9466 28.0216 29.7402C27.1726 28.0782 28.3856 25.4412 28.3856 25.4412M30.5126 24.4692C30.5126 24.4692 27.6216 22.7592 30.9656 19.8582M32.0046 22.3222C32.5116 24.8922 33.2426 27.6032 31.6776 31.5972M25.8356 46.3982C26.0226 46.3982 30.4176 46.5252 28.8136 42.8682C27.2096 39.2112 25.9626 39.8252 25.5976 36.1852" stroke="white" stroke-linecap="round" stroke-linejoin="round"/>
<path d="M33.0271 42.7184C33.0271 42.7184 31.6561 44.6744 28.3711 41.9414M35.9991 51.1714C36.1391 51.9224 37.5381 55.4434 40.4231 55.4964C45.1221 55.5834 44.0521 52.3554 47.9251 49.5494C51.7981 46.7434 51.5221 44.7024 51.8641 42.4014" stroke="white" stroke-linecap="round" stroke-linejoin="round"/>
<path d="M50.3979 43.8906C53.2139 42.4916 53.7309 35.5586 51.5569 36.6706C51.5569 36.6706 53.5159 29.8906 49.9629 28.1406" stroke="white" stroke-linecap="round" stroke-linejoin="round"/>
<path d="M48.6661 31.1771C48.6661 31.1771 51.9481 25.3751 47.2461 22.4531" stroke="white" stroke-linecap="round" stroke-linejoin="round"/>
<path d="M47.066 24.3842C47.1 24.1402 48.499 19.0932 43.129 18.2772M43.442 19.3462C43.442 19.3462 41.14 13.3462 35.998 18.7692M40.419 52.7432C41.366 52.7912 43.241 53.1252 45.646 48.6312M41.234 47.5012C40.5218 47.6446 39.8657 47.9896 39.344 48.4953C38.8222 49.0009 38.4567 49.6458 38.291 50.3532M46.588 44.1212C47.3544 43.6342 47.9807 42.9559 48.4051 42.1531C48.8294 41.3503 49.0372 40.4508 49.008 39.5432C48.778 36.5582 49.858 35.3432 49.858 35.3432M46.351 34.3762C46.351 34.3762 44.688 34.1702 43.994 36.8112C43.9374 37.0726 43.8126 37.3144 43.6323 37.5119C43.4519 37.7094 43.2225 37.8557 42.9674 37.9358C42.7122 38.016 42.4404 38.0272 42.1795 37.9682C41.9186 37.9093 41.678 37.7823 41.482 37.6002M40.754 35.1922C40.754 35.1922 38.866 35.4922 38.387 34.1422M43.423 33.6202C43.207 32.3007 43.4004 30.9466 43.977 29.7402C44.826 28.0782 43.613 25.4412 43.613 25.4412M41.486 24.4692C41.486 24.4692 44.377 22.7592 41.033 19.8582M39.994 22.3222C39.487 24.8922 38.756 27.6032 40.321 31.5972M46.163 46.3982C45.976 46.3982 41.581 46.5252 43.185 42.8682C44.789 39.2112 46.037 39.8252 46.401 36.1852" stroke="white" stroke-linecap="round" stroke-linejoin="round"/>
<path d="M38.9727 42.7184C38.9727 42.7184 40.3437 44.6744 43.6287 41.9414" stroke="white" stroke-linecap="round" stroke-linejoin="round"/>
<path d="M36 51.1725V18.7695" stroke="white" stroke-linecap="round"/>
</svg>
