<svg width="73" height="72" viewBox="0 0 73 72" fill="none" xmlns="http://www.w3.org/2000/svg">
<circle cx="36.5" cy="36" r="36" fill="#18A000"/>
<path d="M57.0139 21.4584L37.5139 14.9584C37.1803 14.8472 36.8197 14.8472 36.4861 14.9584L16.9861 21.4584C16.6625 21.5663 16.3811 21.7732 16.1817 22.0499C15.9823 22.3266 15.875 22.659 15.875 23.0001V39.2501C15.875 39.6811 16.0462 40.0944 16.351 40.3992C16.6557 40.7039 17.069 40.8751 17.5 40.8751C17.931 40.8751 18.3443 40.7039 18.649 40.3992C18.9538 40.0944 19.125 39.6811 19.125 39.2501V25.2548L25.948 27.5278C24.1352 30.4564 23.5587 33.9848 24.3452 37.3381C25.1316 40.6914 27.2167 43.5956 30.1425 45.4129C26.4862 46.847 23.3256 49.4409 21.0141 52.9875C20.8938 53.1661 20.8103 53.3669 20.7684 53.5782C20.7265 53.7894 20.7269 54.0069 20.7698 54.2179C20.8126 54.429 20.897 54.6294 21.018 54.8075C21.139 54.9857 21.2942 55.138 21.4746 55.2557C21.6549 55.3733 21.8569 55.4539 22.0687 55.4929C22.2805 55.5318 22.4979 55.5282 22.7084 55.4823C22.9188 55.4365 23.118 55.3492 23.2944 55.2257C23.4708 55.1022 23.6209 54.9448 23.7359 54.7628C26.797 50.0665 31.6314 47.3751 37 47.3751C42.3686 47.3751 47.203 50.0665 50.2641 54.7628C50.5024 55.117 50.8706 55.3632 51.289 55.4482C51.7074 55.5331 52.1424 55.45 52.5 55.2167C52.8577 54.9835 53.1091 54.6189 53.2 54.2017C53.2909 53.7846 53.214 53.3484 52.9859 52.9875C50.6744 49.4409 47.5016 46.847 43.8575 45.4129C46.7805 43.5957 48.8636 40.6934 49.6499 37.3425C50.4362 33.9917 49.8616 30.4657 48.052 27.5379L57.0139 24.552C57.3375 24.4442 57.619 24.2373 57.8185 23.9606C58.018 23.6839 58.1254 23.3514 58.1254 23.0103C58.1254 22.6692 58.018 22.3367 57.8185 22.06C57.619 21.7833 57.3375 21.5764 57.0139 21.4686V21.4584ZM46.75 34.3751C46.7504 35.9165 46.3854 37.4361 45.6848 38.8091C44.9843 40.1822 43.9682 41.3695 42.7199 42.2738C41.4716 43.1781 40.0266 43.7735 38.5036 44.0112C36.9807 44.249 35.423 44.1222 33.9585 43.6414C32.494 43.1605 31.1644 42.3393 30.0787 41.2451C28.993 40.1508 28.1823 38.8148 27.7129 37.3466C27.2436 35.8783 27.1291 34.3197 27.3787 32.7987C27.6284 31.2776 28.2352 29.8374 29.1492 28.5962L36.4861 31.0337C36.8197 31.1449 37.1803 31.1449 37.5139 31.0337L44.8508 28.5962C46.0853 30.27 46.751 32.2953 46.75 34.3751Z" fill="white"/>
</svg>
