<svg width="18" height="17" viewBox="0 0 18 17" fill="none" xmlns="http://www.w3.org/2000/svg">
<path d="M12.1898 1.82426C13.1331 1.82697 14.0371 2.18904 14.7041 2.8314C15.3712 3.47376 15.7472 4.34421 15.75 5.25264V12.1087C15.7472 13.0171 15.3712 13.8875 14.7041 14.5299C14.0371 15.1723 13.1331 15.5343 12.1898 15.537H5.07004C4.12668 15.5343 3.22275 15.1723 2.55569 14.5299C1.88862 13.8875 1.51262 13.0171 1.5098 12.1087V5.25264C1.51262 4.34421 1.88862 3.47376 2.55569 2.8314C3.22275 2.18904 4.12668 1.82697 5.07004 1.82426H12.1898ZM12.1898 0.453125H5.07004C2.32873 0.453125 0.0859375 2.61285 0.0859375 5.25264V12.1087C0.0859375 14.7484 2.32873 16.9082 5.07004 16.9082H12.1898C14.9311 16.9082 17.1739 14.7484 17.1739 12.1087V5.25264C17.1739 2.61285 14.9311 0.453125 12.1898 0.453125Z" fill="white"/>
<path d="M13.2553 5.25219C13.0441 5.25219 12.8376 5.19188 12.662 5.07887C12.4863 4.96586 12.3494 4.80524 12.2686 4.61732C12.1878 4.4294 12.1666 4.22261 12.2078 4.02311C12.249 3.82362 12.3508 3.64037 12.5001 3.49654C12.6495 3.35271 12.8398 3.25476 13.0469 3.21507C13.2541 3.17539 13.4689 3.19576 13.664 3.2736C13.8592 3.35144 14.026 3.48326 14.1433 3.65238C14.2607 3.82151 14.3233 4.02035 14.3233 4.22375C14.3236 4.35889 14.2962 4.49276 14.2426 4.61766C14.1891 4.74257 14.1104 4.85606 14.0112 4.95162C13.9119 5.04718 13.7941 5.12292 13.6644 5.1745C13.5347 5.22608 13.3956 5.25248 13.2553 5.25219ZM8.62745 5.93758C9.19076 5.93758 9.74141 6.09843 10.2098 6.39979C10.6782 6.70116 11.0432 7.1295 11.2588 7.63065C11.4743 8.1318 11.5307 8.68325 11.4208 9.21527C11.3109 9.74728 11.0397 10.236 10.6414 10.6195C10.2431 11.0031 9.73557 11.2643 9.18309 11.3701C8.63061 11.476 8.05795 11.4216 7.53753 11.2141C7.0171 11.0065 6.57229 10.655 6.25933 10.2039C5.94638 9.75291 5.77934 9.22265 5.77934 8.68021C5.78015 7.95305 6.08047 7.25591 6.61442 6.74173C7.14837 6.22756 7.87233 5.93835 8.62745 5.93758ZM8.62745 4.56644C7.78253 4.56644 6.95659 4.80771 6.25407 5.25974C5.55154 5.71176 5.00399 6.35425 4.68066 7.10594C4.35732 7.85763 4.27272 8.68477 4.43756 9.48276C4.60239 10.2808 5.00926 11.0138 5.60671 11.5891C6.20415 12.1644 6.96535 12.5562 7.79403 12.7149C8.62271 12.8737 9.48167 12.7922 10.2623 12.4808C11.0429 12.1695 11.7101 11.6422 12.1795 10.9657C12.6489 10.2892 12.8994 9.49383 12.8994 8.68021C12.8994 7.58917 12.4494 6.54282 11.6482 5.77134C10.847 4.99986 9.76045 4.56644 8.62745 4.56644Z" fill="white"/>
</svg>
