<svg width="19" height="15" viewBox="0 0 19 15" fill="none" xmlns="http://www.w3.org/2000/svg">
<path d="M18.5683 2.09097C17.8815 2.38938 17.1548 2.58598 16.4113 2.67455C17.1927 2.21698 17.7804 1.49005 18.064 0.630102C17.3252 1.0621 16.5183 1.36522 15.6778 1.52646C15.3239 1.15553 14.8982 0.860448 14.4267 0.659146C13.9552 0.457845 13.4477 0.354528 12.935 0.355475C10.8592 0.355475 9.17944 2.01087 9.17944 4.0515C9.17796 4.33535 9.21049 4.61835 9.27632 4.89446C7.78787 4.82468 6.33038 4.44498 4.99708 3.77964C3.66379 3.11431 2.48405 2.17799 1.53335 1.0306C1.19982 1.59287 1.02343 2.2344 1.02262 2.88815C1.02262 4.16974 1.69126 5.30258 2.7009 5.96627C2.10272 5.95207 1.51679 5.79375 0.992868 5.50474V5.55051C0.992868 7.34322 2.28972 8.8346 4.00614 9.17407C3.68337 9.26011 3.35076 9.30371 3.01672 9.30375C2.77969 9.30416 2.5432 9.28117 2.3107 9.23509C2.78786 10.7036 4.17664 11.7716 5.82173 11.8021C4.48498 12.8323 2.84379 13.3891 1.15612 13.385C0.856553 13.3846 0.557266 13.3667 0.259766 13.3316C1.97664 14.4279 3.97236 15.0078 6.0094 15.0023C12.927 15.0023 16.7061 9.36859 16.7061 4.48251C16.7061 4.32232 16.7019 4.16212 16.6943 4.00573C17.4278 3.48396 18.0624 2.83556 18.5683 2.09097Z" fill="white"/>
</svg>
