<svg width="351" height="393" viewBox="0 0 351 393" fill="none" xmlns="http://www.w3.org/2000/svg">
<g filter="url(#filter0_d_4073_1528)">
<path d="M308.879 256.059L40.8799 268.18L1 228.3V357.599C1 373.074 13.5538 385.628 29.0296 385.628H315.102C330.577 385.628 343.131 373.074 343.131 357.599V221.82L308.879 256.073V256.059Z" fill="#5C5C5C"/>
</g>
<g filter="url(#filter1_d_4073_1528)">
<path d="M299.034 65H45.9702C33.2841 65 23 75.2841 23 87.9702V341.034C23 353.72 33.2841 364.005 45.9702 364.005H299.034C311.72 364.005 322.005 353.72 322.005 341.034V87.9702C322.005 75.2841 311.72 65 299.034 65Z" fill="#F6F6F6"/>
</g>
<g filter="url(#filter2_d_4073_1528)">
<path d="M172.733 131.354C208.73 131.354 237.91 102.173 237.91 66.1769C237.91 30.1807 208.73 1 172.733 1C136.737 1 107.557 30.1807 107.557 66.1769C107.557 102.173 136.737 131.354 172.733 131.354Z" fill="#5C5C5C"/>
</g>
<g filter="url(#filter3_d_4073_1528)">
<path d="M223.722 74.4677C228.292 46.3112 209.172 19.7808 181.015 15.2104C152.859 10.6399 126.328 29.7602 121.758 57.9166C117.187 86.0731 136.308 112.604 164.464 117.174C192.621 121.744 219.151 102.624 223.722 74.4677Z" fill="#F6F6F6"/>
</g>
<path d="M171.68 45.3867C164.727 45.3867 159.059 51.0413 159.059 58.0081C159.059 60.2943 159.681 62.5399 160.844 64.4879C161.034 64.7991 161.237 65.1102 161.467 65.4214L161.521 65.489C161.778 65.8543 164.077 69.1415 165.16 73.3892C164.997 73.4975 164.848 73.6192 164.7 73.7545C164.145 74.2956 163.847 75.0261 163.834 75.7972C163.834 76.5277 164.091 77.2176 164.578 77.7587C164.077 78.2863 163.807 78.9762 163.807 79.7067C163.807 80.4778 164.091 81.2083 164.632 81.7629C165.146 82.277 165.822 82.5881 166.539 82.6287C167.392 84.6985 169.434 86.0783 171.694 86.0783C173.953 86.0783 175.928 84.739 176.807 82.7099C178.39 82.7099 179.675 81.4247 179.688 79.842C179.688 79.1115 179.431 78.4216 178.944 77.8805C179.431 77.3529 179.716 76.663 179.729 75.9325C179.729 74.8502 179.147 73.8762 178.214 73.3622C179.296 69.1145 181.569 65.8543 181.839 65.5025L181.907 65.4214C182.137 65.1102 182.34 64.7991 182.529 64.4879C183.706 62.5399 184.315 60.2943 184.315 58.0081C184.315 51.0549 178.66 45.3867 171.694 45.3867H171.68ZM174.575 82.7369C173.885 83.6298 172.83 84.1573 171.694 84.1573C170.557 84.1573 169.448 83.6027 168.772 82.6828L174.588 82.7369H174.575ZM166.012 79.0438C166.201 78.868 166.431 78.7598 166.702 78.7598L176.794 78.8409C177.335 78.8409 177.768 79.2873 177.754 79.8149C177.754 80.072 177.646 80.3155 177.456 80.5048C177.267 80.6807 177.01 80.7619 176.78 80.7754L166.675 80.6942C166.418 80.6942 166.174 80.586 165.985 80.3966C165.809 80.2072 165.701 79.9637 165.701 79.7067C165.701 79.4497 165.809 79.2062 165.985 79.0168L166.012 79.0438ZM176.821 76.8794L166.715 76.7982C166.458 76.7982 166.215 76.69 166.025 76.5142C165.85 76.3248 165.741 76.0813 165.741 75.8242C165.741 75.5672 165.85 75.3237 166.025 75.1478C166.134 75.0396 166.269 74.9585 166.418 74.9179H172.532L176.821 74.9585C177.362 74.9585 177.795 75.4049 177.781 75.9325C177.781 76.46 177.335 76.8929 176.807 76.8929L176.821 76.8794ZM167.906 63.3922C168.339 63.3922 168.677 63.7439 168.677 64.1633V64.9344H167.906C167.473 64.9344 167.135 64.5826 167.135 64.1633C167.135 63.7439 167.486 63.3922 167.906 63.3922ZM172.911 66.8553V72.9834H170.598V66.8553H172.911ZM176.374 64.1633C176.374 64.5962 176.022 64.9344 175.603 64.9344H174.832V64.1633C174.832 63.7304 175.184 63.3922 175.603 63.3922C176.022 63.3922 176.374 63.7439 176.374 64.1633ZM180.257 64.3797C179.783 65.0291 177.429 68.4786 176.307 72.9834H174.832V66.8553H175.603C177.091 66.8553 178.295 65.6513 178.295 64.1633C178.295 62.6752 177.091 61.4713 175.603 61.4713C174.115 61.4713 172.911 62.6752 172.911 64.1633V64.9344H170.598V64.1633C170.598 62.6752 169.394 61.4713 167.906 61.4713C166.418 61.4713 165.214 62.6752 165.214 64.1633C165.214 65.6513 166.418 66.8553 167.906 66.8553H168.677V72.9428H167.026C165.89 68.4381 163.55 65.0155 163.076 64.3662L163.022 64.285C162.833 64.028 162.657 63.7575 162.495 63.4869C161.507 61.8365 160.98 59.9291 160.98 57.9946C160.98 52.0965 165.782 47.2941 171.68 47.2941C177.578 47.2941 182.38 52.0965 182.38 57.9946C182.38 59.9291 181.853 61.8365 180.865 63.4869C180.703 63.7575 180.527 64.0145 180.284 64.3662L180.257 64.3797Z" fill="#5C5C5C"/>
<path d="M189.645 59.3906H186.398C185.87 59.3906 185.438 59.8235 185.438 60.3511C185.438 60.8787 185.87 61.3116 186.398 61.3116H189.645C190.172 61.3116 190.605 60.8787 190.605 60.3511C190.605 59.8235 190.172 59.3906 189.645 59.3906Z" fill="#5C5C5C"/>
<path d="M186.52 57.1737C186.669 57.1737 186.818 57.1331 186.953 57.0655L189.861 55.591C190.091 55.4692 190.254 55.2798 190.335 55.0363C190.416 54.7928 190.389 54.5358 190.281 54.3058C190.159 54.0758 189.97 53.9135 189.726 53.8324C189.483 53.7512 189.226 53.7782 188.996 53.8865L186.087 55.361C185.857 55.4827 185.695 55.6721 185.614 55.9156C185.532 56.1591 185.559 56.4162 185.668 56.6461C185.83 56.9708 186.155 57.1737 186.52 57.1737Z" fill="#5C5C5C"/>
<path d="M188.725 64.8132L185.816 63.3386C185.343 63.1087 184.761 63.2845 184.531 63.758C184.409 63.988 184.396 64.245 184.477 64.4885C184.558 64.732 184.72 64.9349 184.95 65.0431L187.845 66.5177C187.981 66.5853 188.129 66.6259 188.278 66.6259C188.643 66.6259 188.968 66.423 189.13 66.0983C189.374 65.6248 189.185 65.0431 188.711 64.8132H188.725Z" fill="#5C5C5C"/>
<path d="M157.136 60.3511C157.136 59.8235 156.703 59.3906 156.176 59.3906H152.929C152.402 59.3906 151.969 59.8235 151.969 60.3511C151.969 60.8787 152.402 61.3116 152.929 61.3116H156.176C156.703 61.3116 157.136 60.8787 157.136 60.3511Z" fill="#5C5C5C"/>
<path d="M152.712 55.5882L155.621 57.0627C155.756 57.1303 155.905 57.1709 156.053 57.1709C156.419 57.1709 156.743 56.968 156.906 56.6433C157.027 56.4133 157.041 56.1563 156.96 55.9128C156.879 55.6693 156.716 55.4664 156.486 55.3582L153.578 53.8836C153.104 53.6401 152.523 53.8295 152.293 54.303C152.171 54.533 152.157 54.79 152.239 55.0335C152.32 55.277 152.482 55.4799 152.712 55.5882Z" fill="#5C5C5C"/>
<path d="M156.744 63.3389L153.835 64.8134C153.605 64.9351 153.443 65.1245 153.362 65.368C153.28 65.6115 153.308 65.8686 153.416 66.0985C153.578 66.4232 153.903 66.6261 154.268 66.6261C154.417 66.6261 154.566 66.5855 154.701 66.5179L157.609 65.0569C157.839 64.9352 158.002 64.7458 158.083 64.5023C158.164 64.2588 158.137 64.0017 158.029 63.7718C157.785 63.2983 157.204 63.1089 156.744 63.3524V63.3389Z" fill="#5C5C5C"/>
<defs>
<filter id="filter0_d_4073_1528" x="0" y="220.82" width="350.131" height="171.809" filterUnits="userSpaceOnUse" color-interpolation-filters="sRGB">
<feFlood flood-opacity="0" result="BackgroundImageFix"/>
<feColorMatrix in="SourceAlpha" type="matrix" values="0 0 0 0 0 0 0 0 0 0 0 0 0 0 0 0 0 0 127 0" result="hardAlpha"/>
<feOffset dx="3" dy="3"/>
<feGaussianBlur stdDeviation="2"/>
<feColorMatrix type="matrix" values="0 0 0 0 0.466667 0 0 0 0 0.466667 0 0 0 0 0.466667 0 0 0 0.35 0"/>
<feBlend mode="normal" in2="BackgroundImageFix" result="effect1_dropShadow_4073_1528"/>
<feBlend mode="normal" in="SourceGraphic" in2="effect1_dropShadow_4073_1528" result="shape"/>
</filter>
<filter id="filter1_d_4073_1528" x="22" y="64" width="307.004" height="307.004" filterUnits="userSpaceOnUse" color-interpolation-filters="sRGB">
<feFlood flood-opacity="0" result="BackgroundImageFix"/>
<feColorMatrix in="SourceAlpha" type="matrix" values="0 0 0 0 0 0 0 0 0 0 0 0 0 0 0 0 0 0 127 0" result="hardAlpha"/>
<feOffset dx="3" dy="3"/>
<feGaussianBlur stdDeviation="2"/>
<feColorMatrix type="matrix" values="0 0 0 0 0.466667 0 0 0 0 0.466667 0 0 0 0 0.466667 0 0 0 0.35 0"/>
<feBlend mode="normal" in2="BackgroundImageFix" result="effect1_dropShadow_4073_1528"/>
<feBlend mode="normal" in="SourceGraphic" in2="effect1_dropShadow_4073_1528" result="shape"/>
</filter>
<filter id="filter2_d_4073_1528" x="106.557" y="0" width="138.354" height="138.355" filterUnits="userSpaceOnUse" color-interpolation-filters="sRGB">
<feFlood flood-opacity="0" result="BackgroundImageFix"/>
<feColorMatrix in="SourceAlpha" type="matrix" values="0 0 0 0 0 0 0 0 0 0 0 0 0 0 0 0 0 0 127 0" result="hardAlpha"/>
<feOffset dx="3" dy="3"/>
<feGaussianBlur stdDeviation="2"/>
<feColorMatrix type="matrix" values="0 0 0 0 0.466667 0 0 0 0 0.466667 0 0 0 0 0.466667 0 0 0 0.35 0"/>
<feBlend mode="normal" in2="BackgroundImageFix" result="effect1_dropShadow_4073_1528"/>
<feBlend mode="normal" in="SourceGraphic" in2="effect1_dropShadow_4073_1528" result="shape"/>
</filter>
<filter id="filter3_d_4073_1528" x="120.082" y="13.5352" width="111.314" height="111.312" filterUnits="userSpaceOnUse" color-interpolation-filters="sRGB">
<feFlood flood-opacity="0" result="BackgroundImageFix"/>
<feColorMatrix in="SourceAlpha" type="matrix" values="0 0 0 0 0 0 0 0 0 0 0 0 0 0 0 0 0 0 127 0" result="hardAlpha"/>
<feOffset dx="3" dy="3"/>
<feGaussianBlur stdDeviation="2"/>
<feColorMatrix type="matrix" values="0 0 0 0 0.466667 0 0 0 0 0.466667 0 0 0 0 0.466667 0 0 0 0.35 0"/>
<feBlend mode="normal" in2="BackgroundImageFix" result="effect1_dropShadow_4073_1528"/>
<feBlend mode="normal" in="SourceGraphic" in2="effect1_dropShadow_4073_1528" result="shape"/>
</filter>
</defs>
</svg>
