<svg width="351" height="393" viewBox="0 0 351 393" fill="none" xmlns="http://www.w3.org/2000/svg">
<g filter="url(#filter0_d_4073_1530)">
<path d="M308.879 256.059L40.8799 268.18L1 228.3V357.599C1 373.074 13.5538 385.628 29.0296 385.628H315.102C330.577 385.628 343.131 373.074 343.131 357.599V221.82L308.879 256.073V256.059Z" fill="#5C5C5C"/>
</g>
<g filter="url(#filter1_d_4073_1530)">
<path d="M298.597 65.0469H45.5327C32.8466 65.0469 22.5625 75.331 22.5625 88.0171V341.081C22.5625 353.767 32.8466 364.051 45.5327 364.051H298.597C311.283 364.051 321.567 353.767 321.567 341.081V88.0171C321.567 75.331 311.283 65.0469 298.597 65.0469Z" fill="#F6F6F6"/>
</g>
<g filter="url(#filter2_d_4073_1530)">
<path d="M172.733 131.354C208.73 131.354 237.91 102.173 237.91 66.1769C237.91 30.1807 208.73 1 172.733 1C136.737 1 107.557 30.1807 107.557 66.1769C107.557 102.173 136.737 131.354 172.733 131.354Z" fill="#5C5C5C"/>
</g>
<g filter="url(#filter3_d_4073_1530)">
<path d="M223.722 74.4677C228.292 46.3112 209.172 19.7808 181.015 15.2104C152.859 10.6399 126.328 29.7602 121.758 57.9166C117.187 86.0731 136.308 112.604 164.464 117.174C192.621 121.744 219.151 102.624 223.722 74.4677Z" fill="#F6F6F6"/>
</g>
<path d="M179.859 66.1909C181.306 66.1909 182.735 65.7261 183.83 64.7967C184.924 63.8672 185.471 62.6978 185.471 61.4236C185.471 60.1493 184.889 58.95 183.83 58.0505C181.641 56.1915 178.058 56.1915 175.87 58.0505C174.811 58.95 174.229 60.1493 174.229 61.4236C174.229 62.6978 174.811 63.8972 175.87 64.7967C176.964 65.7261 178.411 66.1909 179.841 66.1909H179.859ZM176.964 61.4086C176.964 60.7489 177.264 60.1343 177.811 59.6696C178.906 58.7401 180.829 58.7401 181.923 59.6696C182.471 60.1343 182.771 60.7489 182.771 61.4086C182.771 62.0682 182.471 62.6829 181.923 63.1476C180.829 64.0771 178.923 64.0771 177.811 63.1476C177.264 62.6829 176.964 62.0682 176.964 61.4086Z" fill="#5C5C5C"/>
<path d="M198.001 47.1855C198.001 46.8706 197.86 46.5708 197.595 46.3459C197.33 46.1211 196.977 45.9861 196.607 46.0011C196.342 46.0011 189.988 46.151 181.729 49.1344C176.752 50.9483 172.092 53.4369 167.874 56.5552C163.391 54.5913 154.337 53.7967 147.401 62.9266C147.26 63.1065 147.189 63.3314 147.189 63.5562C147.189 63.7811 147.26 63.976 147.384 64.1559C147.648 64.5307 148.16 64.7406 148.69 64.6956C150.525 64.5307 155.608 64.4857 158.132 65.9549C157.161 67.1842 156.226 68.4585 155.361 69.7627C155.237 69.9426 155.184 70.1375 155.184 70.3324C155.184 70.6472 155.326 70.9321 155.59 71.157L156.049 71.5467L153.737 76.0442C153.667 76.1941 153.631 76.344 153.631 76.5089C153.631 76.8238 153.773 77.1086 154.037 77.3335L161.115 83.3451C161.52 83.6749 162.103 83.7799 162.615 83.585L167.909 81.6211L168.368 82.0108C168.792 82.3706 169.463 82.4606 169.992 82.2057C171.51 81.4712 173.01 80.6916 174.457 79.8671C176.099 82.0408 176.028 86.2685 175.851 87.7676C175.799 88.2024 176.046 88.6371 176.504 88.877C176.716 88.9969 176.963 89.0419 177.21 89.0419C177.458 89.0419 177.722 88.9819 177.952 88.862C188.576 83.0603 187.765 75.3996 185.523 71.5917C197.595 59.8383 198.001 47.3054 198.001 47.1855ZM165.509 58.2342C163.391 59.9883 161.397 61.9372 159.579 64.021C157.196 62.6867 153.667 62.3719 151.284 62.3419C156.755 56.6002 162.65 57.3647 165.509 58.2342ZM195.159 48.4298C194.595 52.7323 191.647 65.3552 176.84 75.5195L176.752 75.5795C174.545 77.0936 172.128 78.5028 169.568 79.7771L158.255 70.1675C170.769 51.9978 190.147 48.9245 195.159 48.4298ZM178.111 77.6033C178.322 77.4534 178.534 77.3035 178.781 77.1386C179.152 76.8837 179.505 76.6289 179.84 76.389C181.146 75.4445 182.382 74.4701 183.493 73.4956C184.517 75.9243 185.435 80.9315 178.658 85.5788C178.622 83.555 178.252 80.5567 176.681 78.5178C177.157 78.203 177.634 77.9032 178.111 77.5883V77.6033ZM165.844 79.882L162.368 81.1713L156.596 76.2691L158.114 73.3157L165.827 79.882H165.844Z" fill="#5C5C5C"/>
<path d="M155.786 83.0176C155.786 82.7028 155.645 82.418 155.38 82.2081C155.133 81.9832 154.78 81.8633 154.427 81.8633C154.057 81.8633 153.721 81.9832 153.456 82.2081L146.203 88.3696C145.956 88.5945 145.814 88.8793 145.814 89.1792C145.814 89.479 145.956 89.7788 146.22 90.0037C146.485 90.2286 146.82 90.3485 147.191 90.3485C147.562 90.3485 147.897 90.2286 148.144 90.0037L155.398 83.8422C155.663 83.6173 155.804 83.3325 155.804 83.0176H155.786Z" fill="#5C5C5C"/>
<path d="M147.33 85.5633L152.377 81.2758C152.642 81.0509 152.783 80.766 152.783 80.4662C152.783 80.1664 152.642 79.8666 152.377 79.6417C152.13 79.4168 151.777 79.2969 151.424 79.2969C151.054 79.2969 150.718 79.4168 150.454 79.6417L145.406 83.9293C145.141 84.1541 145 84.439 145 84.7388C145 85.0386 145.141 85.3385 145.406 85.5633C145.671 85.7882 146.024 85.9082 146.377 85.9082C146.73 85.9082 147.065 85.7882 147.33 85.5633Z" fill="#5C5C5C"/>
<path d="M157.444 84.4219C157.073 84.4219 156.738 84.5418 156.473 84.7667L151.425 89.0543C151.161 89.2791 151.02 89.564 151.02 89.8788C151.02 90.1936 151.161 90.4785 151.425 90.7033C151.69 90.9282 152.043 91.0481 152.396 91.0481C152.749 91.0481 153.084 90.9282 153.349 90.7033L158.397 86.4158C158.662 86.1909 158.803 85.906 158.803 85.5912C158.803 85.2764 158.662 84.9916 158.397 84.7817C158.15 84.5568 157.797 84.4369 157.444 84.4369V84.4219Z" fill="#5C5C5C"/>
<defs>
<filter id="filter0_d_4073_1530" x="0" y="220.82" width="350.131" height="171.809" filterUnits="userSpaceOnUse" color-interpolation-filters="sRGB">
<feFlood flood-opacity="0" result="BackgroundImageFix"/>
<feColorMatrix in="SourceAlpha" type="matrix" values="0 0 0 0 0 0 0 0 0 0 0 0 0 0 0 0 0 0 127 0" result="hardAlpha"/>
<feOffset dx="3" dy="3"/>
<feGaussianBlur stdDeviation="2"/>
<feColorMatrix type="matrix" values="0 0 0 0 0.466667 0 0 0 0 0.466667 0 0 0 0 0.466667 0 0 0 0.35 0"/>
<feBlend mode="normal" in2="BackgroundImageFix" result="effect1_dropShadow_4073_1530"/>
<feBlend mode="normal" in="SourceGraphic" in2="effect1_dropShadow_4073_1530" result="shape"/>
</filter>
<filter id="filter1_d_4073_1530" x="21.5625" y="64.0469" width="307.004" height="307.004" filterUnits="userSpaceOnUse" color-interpolation-filters="sRGB">
<feFlood flood-opacity="0" result="BackgroundImageFix"/>
<feColorMatrix in="SourceAlpha" type="matrix" values="0 0 0 0 0 0 0 0 0 0 0 0 0 0 0 0 0 0 127 0" result="hardAlpha"/>
<feOffset dx="3" dy="3"/>
<feGaussianBlur stdDeviation="2"/>
<feColorMatrix type="matrix" values="0 0 0 0 0.466667 0 0 0 0 0.466667 0 0 0 0 0.466667 0 0 0 0.35 0"/>
<feBlend mode="normal" in2="BackgroundImageFix" result="effect1_dropShadow_4073_1530"/>
<feBlend mode="normal" in="SourceGraphic" in2="effect1_dropShadow_4073_1530" result="shape"/>
</filter>
<filter id="filter2_d_4073_1530" x="106.557" y="0" width="138.354" height="138.355" filterUnits="userSpaceOnUse" color-interpolation-filters="sRGB">
<feFlood flood-opacity="0" result="BackgroundImageFix"/>
<feColorMatrix in="SourceAlpha" type="matrix" values="0 0 0 0 0 0 0 0 0 0 0 0 0 0 0 0 0 0 127 0" result="hardAlpha"/>
<feOffset dx="3" dy="3"/>
<feGaussianBlur stdDeviation="2"/>
<feColorMatrix type="matrix" values="0 0 0 0 0.466667 0 0 0 0 0.466667 0 0 0 0 0.466667 0 0 0 0.35 0"/>
<feBlend mode="normal" in2="BackgroundImageFix" result="effect1_dropShadow_4073_1530"/>
<feBlend mode="normal" in="SourceGraphic" in2="effect1_dropShadow_4073_1530" result="shape"/>
</filter>
<filter id="filter3_d_4073_1530" x="120.082" y="13.5352" width="111.314" height="111.312" filterUnits="userSpaceOnUse" color-interpolation-filters="sRGB">
<feFlood flood-opacity="0" result="BackgroundImageFix"/>
<feColorMatrix in="SourceAlpha" type="matrix" values="0 0 0 0 0 0 0 0 0 0 0 0 0 0 0 0 0 0 127 0" result="hardAlpha"/>
<feOffset dx="3" dy="3"/>
<feGaussianBlur stdDeviation="2"/>
<feColorMatrix type="matrix" values="0 0 0 0 0.466667 0 0 0 0 0.466667 0 0 0 0 0.466667 0 0 0 0.35 0"/>
<feBlend mode="normal" in2="BackgroundImageFix" result="effect1_dropShadow_4073_1530"/>
<feBlend mode="normal" in="SourceGraphic" in2="effect1_dropShadow_4073_1530" result="shape"/>
</filter>
</defs>
</svg>
